<?xml version="1.0" encoding="UTF-8" standalone="no"?>
<!-- Created with Inkscape (http://www.inkscape.org/) -->
<svg
   xmlns:dc="http://purl.org/dc/elements/1.1/"
   xmlns:cc="http://creativecommons.org/ns#"
   xmlns:rdf="http://www.w3.org/1999/02/22-rdf-syntax-ns#"
   xmlns:svg="http://www.w3.org/2000/svg"
   xmlns="http://www.w3.org/2000/svg"
   xmlns:sodipodi="http://sodipodi.sourceforge.net/DTD/sodipodi-0.dtd"
   xmlns:inkscape="http://www.inkscape.org/namespaces/inkscape"
   width="744.09448819"
   height="1052.3622047"
   id="svg2"
   sodipodi:version="0.32"
   inkscape:version="0.46"
   sodipodi:docname="recommendation.svg"
   inkscape:output_extension="org.inkscape.output.svg.inkscape"
   inkscape:export-filename="/home/pos/tassia/Desktop/Template_SBC/template-latex/recommendation.png"
   inkscape:export-xdpi="90"
   inkscape:export-ydpi="90">
  <defs
     id="defs4">
    <inkscape:perspective
       sodipodi:type="inkscape:persp3d"
       inkscape:vp_x="217.97277 : 628.93417 : 1"
       inkscape:vp_y="7.5988716e-14 : 1198.0604 : 0"
       inkscape:vp_z="919.67421 : 628.93417 : 1"
       inkscape:persp3d-origin="568.82349 : 418.80193 : 1"
       id="perspective10" />
  </defs>
  <sodipodi:namedview
     id="base"
     pagecolor="#ffffff"
     bordercolor="#666666"
     borderopacity="1.0"
     gridtolerance="10000"
     guidetolerance="10"
     objecttolerance="10"
     inkscape:pageopacity="0.0"
     inkscape:pageshadow="2"
     inkscape:zoom="1.1333178"
     inkscape:cx="204.24589"
     inkscape:cy="766.61348"
     inkscape:document-units="px"
     inkscape:current-layer="layer1"
     showgrid="false"
     inkscape:window-width="1670"
     inkscape:window-height="971"
     inkscape:window-x="0"
     inkscape:window-y="25" />
  <metadata
     id="metadata7">
    <rdf:RDF>
      <cc:Work
         rdf:about="">
        <dc:format>image/svg+xml</dc:format>
        <dc:type
           rdf:resource="http://purl.org/dc/dcmitype/StillImage" />
      </cc:Work>
    </rdf:RDF>
  </metadata>
  <g
     inkscape:label="Layer 1"
     inkscape:groupmode="layer"
     id="layer1">
    <g
       id="g2523"
       transform="translate(-4.4118252,159.70807)">
      <rect
         ry="27.099455"
         y="130.98071"
         x="110.65611"
         height="92.589775"
         width="79.04007"
         id="rect2383"
         style="fill:#e6e6e6;fill-rule:evenodd;stroke:#000000;stroke-width:1px;stroke-linecap:butt;stroke-linejoin:miter;stroke-opacity:1" />
      <rect
         ry="27.099455"
         y="145.65958"
         x="123.07668"
         height="92.589775"
         width="79.04007"
         id="rect2385"
         style="fill:#e6e6e6;fill-rule:evenodd;stroke:#000000;stroke-width:1px;stroke-linecap:butt;stroke-linejoin:miter;stroke-opacity:1" />
      <rect
         ry="27.099455"
         y="163.72589"
         x="138.88472"
         height="92.589775"
         width="79.04007"
         id="rect2387"
         style="fill:#e6e6e6;fill-rule:evenodd;stroke:#000000;stroke-width:1px;stroke-linecap:butt;stroke-linejoin:miter;stroke-opacity:1" />
      <rect
         ry="27.099455"
         y="179.53391"
         x="154.69273"
         height="92.589775"
         width="79.04007"
         id="rect2389"
         style="fill:#e6e6e6;fill-rule:evenodd;stroke:#000000;stroke-width:1px;stroke-linecap:butt;stroke-linejoin:miter;stroke-opacity:1" />
      <rect
         ry="27.099455"
         y="197.60022"
         x="168.24248"
         height="92.589775"
         width="79.04007"
         id="rect2391"
         style="fill:#e6e6e6;fill-rule:evenodd;stroke:#000000;stroke-width:1px;stroke-linecap:butt;stroke-linejoin:miter;stroke-opacity:1" />
    </g>
    <g
       sodipodi:type="inkscape:box3d"
       style="fill:#ffd5d5"
       id="g2393"
       inkscape:perspectiveID="#perspective10"
       inkscape:corner0="1.4589176 : 0.57520566 : 0 : 1"
       inkscape:corner7="0.69842759 : 0.25210447 : 0.25 : 1">
      <path
         sodipodi:type="inkscape:box3dside"
         id="path2405"
         style="fill:#e9e9ff;fill-rule:evenodd;stroke:none;stroke-width:1px;stroke-linecap:butt;stroke-linejoin:round;stroke-opacity:1"
         inkscape:box3dsidetype="11"
         d="M 412.24818,246.60503 L 488.07574,177.58932 L 488.07574,376.25965 L 412.24818,389.50149 L 412.24818,246.60503 z" />
      <path
         sodipodi:type="inkscape:box3dside"
         id="path2395"
         style="fill:#353564;fill-rule:evenodd;stroke:none;stroke-width:1px;stroke-linecap:butt;stroke-linejoin:round;stroke-opacity:1"
         inkscape:box3dsidetype="6"
         d="M 360.6578,228.62731 L 360.6578,386.05216 L 412.24818,389.50149 L 412.24818,246.60503 L 360.6578,228.62731 z" />
      <path
         sodipodi:type="inkscape:box3dside"
         id="path2397"
         style="fill:#4d4d9f;fill-rule:evenodd;stroke:none;stroke-width:1px;stroke-linecap:butt;stroke-linejoin:round;stroke-opacity:1"
         inkscape:box3dsidetype="5"
         d="M 360.6578,228.62731 L 424.54662,141.40311 L 488.07574,177.58932 L 412.24818,246.60503 L 360.6578,228.62731 z" />
      <path
         sodipodi:type="inkscape:box3dside"
         id="path2403"
         style="fill:#afafde;fill-rule:evenodd;stroke:none;stroke-width:1px;stroke-linecap:butt;stroke-linejoin:round;stroke-opacity:1"
         inkscape:box3dsidetype="13"
         d="M 360.6578,386.05216 L 424.54662,369.3167 L 488.07574,376.25965 L 412.24818,389.50149 L 360.6578,386.05216 z" />
      <path
         sodipodi:type="inkscape:box3dside"
         id="path2401"
         style="fill:#d7d7ff;fill-rule:evenodd;stroke:none;stroke-width:1px;stroke-linecap:butt;stroke-linejoin:round;stroke-opacity:1"
         inkscape:box3dsidetype="14"
         d="M 424.54662,141.40311 L 424.54662,369.3167 L 488.07574,376.25965 L 488.07574,177.58932 L 424.54662,141.40311 z" />
      <path
         sodipodi:type="inkscape:box3dside"
         id="path2399"
         style="fill:#8686bf;fill-rule:evenodd;stroke:none;stroke-width:1px;stroke-linecap:butt;stroke-linejoin:round;stroke-opacity:1"
         inkscape:box3dsidetype="3"
         d="M 360.6578,228.62731 L 424.54662,141.40311 L 424.54662,369.3167 L 360.6578,386.05216 L 360.6578,228.62731 z" />
    </g>
    <rect
       style="fill:#e6e6e6;fill-rule:evenodd;stroke:#000000;stroke-width:1px;stroke-linecap:butt;stroke-linejoin:miter;stroke-opacity:1"
       id="rect2407"
       width="79.04007"
       height="92.589775"
       x="99.417969"
       y="118.36855"
       ry="27.099455" />
    <rect
       style="fill:#808080;fill-rule:evenodd;stroke:#000000;stroke-width:0.70204961px;stroke-linecap:butt;stroke-linejoin:miter;stroke-opacity:1"
       id="rect2409"
       width="79.33802"
       height="45.46368"
       x="582.18103"
       y="214.66022"
       ry="13.306447" />
    <g
       id="g2466"
       transform="translate(6.1765552,21.176761)"
       style="fill:#333333">
      <path
         d="M 271.04832,346.01109 C 272.76065,345.57593 274.43047,345.01641 276.11569,344.49385 C 279.52497,343.7253 283.07194,343.53756 286.55959,343.42515 C 291.98291,343.36475 297.40578,343.27094 302.82875,343.18611 C 305.38453,343.14437 307.94076,343.13921 310.49667,343.16877 C 314.43038,343.24269 318.36532,343.21009 322.29948,343.19471 C 324.97872,343.3057 327.63636,343.01011 330.2971,342.75227 C 331.91572,342.59502 333.54282,342.553 335.16798,342.5275 C 336.28386,342.34015 337.45565,342.03325 338.41446,341.41375 L 331.39633,347.02127 C 330.27396,347.42601 329.15878,347.82364 327.94263,347.7959 C 326.34602,347.82542 324.75008,347.88672 323.15958,348.03671 C 320.52367,348.25629 317.88797,348.43118 315.24028,348.32341 C 311.28526,348.30697 307.32959,348.27425 303.37492,348.34183 C 300.84212,348.36481 298.30934,348.34784 295.7767,348.31289 C 290.39601,348.25769 285.01085,348.23628 279.63505,348.50788 C 276.10014,348.7373 272.49843,348.91042 269.08645,349.93884 C 267.36523,350.4986 265.62785,351.02535 263.86011,351.41723 L 271.04832,346.01109 z"
         id="path2413"
         style="fill:#333333" />
      <path
         d="M 331.92917,345.84768 C 330.21044,345.45191 328.56784,345.04265 326.99019,344.23933 C 325.53638,343.36888 324.61997,341.91838 323.75891,340.50423 C 323.02765,339.44671 322.50853,338.18736 321.5012,337.35477 C 320.93684,336.92805 321.21521,337.15994 320.66952,336.65503 L 328.29674,331.92656 C 328.82915,332.3927 328.55006,332.15639 329.13565,332.63355 C 330.11621,333.61583 330.72787,334.86733 331.47675,336.02374 C 332.25325,337.29593 333.06897,338.61256 334.42717,339.33079 C 335.97629,340.03466 337.61052,340.42592 339.29199,340.68188 L 331.92917,345.84768 z"
         id="path2415"
         style="fill:#333333" />
      <path
         d="M 337.48217,343.18201 C 336.68131,344.8519 335.82249,346.49531 335.18788,348.23758 C 334.7197,349.65451 334.14264,351.03023 333.60398,352.42065 C 333.30615,353.26523 333.09458,354.13432 332.80796,354.98271 L 324.68939,358.78215 C 324.99745,357.9239 325.29712,357.07769 325.50868,356.18825 C 326.01087,354.78482 326.61781,353.42404 327.11337,352.01846 C 327.69431,350.25276 328.55441,348.61357 329.32966,346.92832 L 337.48217,343.18201 z"
         id="path2417"
         style="fill:#333333" />
      <path
         d="M 330.26096,346.69431 C 330.38959,345.9528 330.70652,345.28228 331.03277,344.61309 L 339.19208,340.97279 C 338.82427,341.52881 338.49231,342.0839 338.34125,342.7439 L 330.26096,346.69431 z"
         id="path2419"
         style="fill:#333333" />
    </g>
    <g
       id="g2460"
       style="fill:#333333">
      <path
         d="M 271.13334,269.51907 C 272.84567,269.08391 274.51549,268.52439 276.20071,268.00183 C 279.60999,267.23328 283.15696,267.04554 286.64461,266.93313 C 292.06793,266.87273 297.4908,266.77892 302.91377,266.69409 C 305.46955,266.65235 308.02578,266.64719 310.58169,266.67675 C 314.5154,266.75067 318.45034,266.71807 322.3845,266.70269 C 325.06374,266.81368 327.72138,266.51809 330.38212,266.26025 C 332.00074,266.103 333.62784,266.06098 335.253,266.03548 C 336.36888,265.84813 337.54067,265.54123 338.49948,264.92173 L 331.48135,270.52925 C 330.35898,270.93399 329.2438,271.33162 328.02765,271.30388 C 326.43104,271.3334 324.8351,271.3947 323.2446,271.54469 C 320.60869,271.76427 317.97299,271.93916 315.3253,271.83139 C 311.37028,271.81495 307.41461,271.78223 303.45994,271.84981 C 300.92714,271.87279 298.39436,271.85582 295.86172,271.82087 C 290.48103,271.76567 285.09587,271.74426 279.72007,272.01586 C 276.18516,272.24528 272.58345,272.4184 269.17147,273.44682 C 267.45025,274.00658 265.71287,274.53333 263.94513,274.92521 L 271.13334,269.51907 z"
         id="path2421"
         style="fill:#333333" />
      <path
         d="M 332.01419,269.35566 C 330.29546,268.95989 328.65286,268.55063 327.07521,267.74731 C 325.6214,266.87686 324.70499,265.42636 323.84393,264.01221 C 323.11267,262.95469 322.59355,261.69534 321.58622,260.86275 C 321.02186,260.43603 321.30023,260.66792 320.75454,260.16301 L 328.38176,255.43454 C 328.91417,255.90068 328.63508,255.66437 329.22067,256.14153 C 330.20123,257.12381 330.81289,258.37531 331.56177,259.53172 C 332.33827,260.80391 333.15399,262.12054 334.51219,262.83877 C 336.06131,263.54264 337.69554,263.9339 339.37701,264.18986 L 332.01419,269.35566 z"
         id="path2423"
         style="fill:#333333" />
      <path
         d="M 337.56719,266.68999 C 336.76633,268.35988 335.90751,270.00329 335.2729,271.74556 C 334.80472,273.16249 334.22766,274.53821 333.689,275.92863 C 333.39117,276.77321 333.1796,277.6423 332.89298,278.49069 L 324.77441,282.29013 C 325.08247,281.43188 325.38214,280.58567 325.5937,279.69623 C 326.09589,278.2928 326.70283,276.93202 327.19839,275.52644 C 327.77933,273.76074 328.63943,272.12155 329.41468,270.4363 L 337.56719,266.68999 z"
         id="path2425"
         style="fill:#333333" />
      <path
         d="M 330.34598,270.20229 C 330.47461,269.46078 330.79154,268.79026 331.11779,268.12107 L 339.2771,264.48077 C 338.90929,265.03679 338.57733,265.59188 338.42627,266.25188 L 330.34598,270.20229 z"
         id="path2427"
         style="fill:#333333" />
    </g>
    <g
       id="g2454"
       transform="translate(-5.8924987,-15.582482)"
       style="fill:#333333">
      <path
         d="M 508.35548,251.95996 C 510.06781,251.5248 511.73763,250.96528 513.42285,250.44272 C 516.83213,249.67417 520.3791,249.48643 523.86675,249.37402 C 529.29007,249.31362 534.71294,249.21981 540.13591,249.13498 C 542.69169,249.09324 545.24792,249.08808 547.80383,249.11764 C 551.73754,249.19156 555.67248,249.15896 559.60664,249.14358 C 562.28588,249.25457 564.94352,248.95898 567.60426,248.70114 C 569.22288,248.54389 570.84998,248.50187 572.47514,248.47637 C 573.59102,248.28902 574.76281,247.98212 575.72162,247.36262 L 568.70349,252.97014 C 567.58112,253.37488 566.46594,253.77251 565.24979,253.74477 C 563.65318,253.77429 562.05724,253.83559 560.46674,253.98558 C 557.83083,254.20516 555.19513,254.38005 552.54744,254.27228 C 548.59242,254.25584 544.63675,254.22312 540.68208,254.2907 C 538.14928,254.31368 535.6165,254.29671 533.08386,254.26176 C 527.70317,254.20656 522.31801,254.18515 516.94221,254.45675 C 513.4073,254.68617 509.80559,254.85929 506.39361,255.88771 C 504.67239,256.44747 502.93501,256.97422 501.16727,257.3661 L 508.35548,251.95996 z"
         id="path2429"
         style="fill:#333333" />
      <path
         d="M 569.23633,251.79655 C 567.5176,251.40078 565.875,250.99152 564.29735,250.1882 C 562.84354,249.31775 561.92713,247.86725 561.06607,246.4531 C 560.33481,245.39558 559.81569,244.13623 558.80836,243.30364 C 558.244,242.87692 558.52237,243.10881 557.97668,242.6039 L 565.6039,237.87543 C 566.13631,238.34157 565.85722,238.10526 566.44281,238.58242 C 567.42337,239.5647 568.03503,240.8162 568.78391,241.97261 C 569.56041,243.2448 570.37613,244.56143 571.73433,245.27966 C 573.28345,245.98353 574.91768,246.37479 576.59915,246.63075 L 569.23633,251.79655 z"
         id="path2431"
         style="fill:#333333" />
      <path
         d="M 574.78933,249.13088 C 573.98847,250.80077 573.12965,252.44418 572.49504,254.18645 C 572.02686,255.60338 571.4498,256.9791 570.91114,258.36952 C 570.61331,259.2141 570.40174,260.08319 570.11512,260.93158 L 561.99655,264.73102 C 562.30461,263.87277 562.60428,263.02656 562.81584,262.13712 C 563.31803,260.73369 563.92497,259.37291 564.42053,257.96733 C 565.00147,256.20163 565.86157,254.56244 566.63682,252.87719 L 574.78933,249.13088 z"
         id="path2433"
         style="fill:#333333" />
      <path
         d="M 567.56812,252.64318 C 567.69675,251.90167 568.01368,251.23115 568.33993,250.56196 L 576.49924,246.92166 C 576.13143,247.47768 575.79947,248.03277 575.64841,248.69277 L 567.56812,252.64318 z"
         id="path2435"
         style="fill:#333333" />
    </g>
    <g
       id="g2447"
       transform="translate(-401.02751,-197.88318)"
       style="fill:#333333">
      <path
         transform="translate(6.6603542,32.090797)"
         d="M 602.45933,336.97958 A 11.504248,11.806992 0 1 1 579.45083,336.97958 A 11.504248,11.806992 0 1 1 602.45933,336.97958 z"
         sodipodi:ry="11.806992"
         sodipodi:rx="11.504248"
         sodipodi:cy="336.97958"
         sodipodi:cx="590.95508"
         id="path2437"
         style="fill:#333333"
         sodipodi:type="arc" />
      <path
         d="M 602.18972,376.09137 C 602.38434,382.73184 603.1011,389.35333 603.61743,395.97725 C 604.04457,401.86499 604.29693,407.76668 604.50088,413.66641 C 604.56963,414.99392 604.47665,416.38957 604.93451,417.65982 L 597.07461,421.98614 C 596.6397,420.58149 596.7631,419.07885 596.76277,417.62472 C 596.77701,411.67615 596.67713,405.7281 596.26627,399.79136 C 595.80783,393.21635 595.06737,386.6742 594.25208,380.1358 L 602.18972,376.09137 z"
         id="path2439"
         style="fill:#333333" />
      <path
         d="M 602.70228,400.6521 C 601.73887,402.51707 600.99946,404.48287 600.18489,406.41413 C 599.44741,408.32349 598.72895,410.24602 598.07989,412.18817 C 597.56035,413.59096 597.02934,415.01436 596.30589,416.32742 C 595.71084,417.32794 595.04553,418.2845 594.43221,419.27281 C 594.09743,419.94958 593.60526,420.52706 593.03816,421.01971 L 584.70996,424.47216 C 585.18549,423.92819 585.8465,423.56595 586.24378,422.94739 C 586.74737,421.87427 587.53957,420.98004 588.10935,419.93964 C 588.97049,418.74292 589.42878,417.31306 590.02693,415.97476 C 590.66442,413.99668 591.44393,412.06358 592.14703,410.10991 C 592.9671,408.20353 593.70367,406.26537 594.51594,404.35586 L 602.70228,400.6521 z"
         id="path2441"
         style="fill:#333333" />
      <path
         d="M 606.48798,399.89941 C 608.1962,399.53664 609.74507,399.82536 611.30879,400.54606 C 612.72785,401.27853 614.09287,402.10398 615.36956,403.06433 C 616.69948,403.8544 617.81338,404.90448 618.80019,406.08459 C 619.98338,407.41057 620.74987,409.02086 621.73006,410.48838 C 622.12348,411.14003 622.54718,411.77104 622.98241,412.39509 L 615.28677,416.92507 C 614.84938,416.29498 614.42103,415.65945 614.03285,414.99726 C 613.07989,413.55674 612.35413,411.96512 611.18093,410.67947 C 610.19153,409.58193 609.06678,408.64313 607.81775,407.85033 C 606.57789,406.95863 605.29232,406.12248 603.89473,405.49651 C 602.37241,404.93261 600.87803,404.92059 599.29976,405.30555 L 606.48798,399.89941 z"
         id="path2443"
         style="fill:#333333" />
      <path
         d="M 583.11834,392.77813 C 588.4647,391.66826 593.57507,389.72366 598.67745,387.82479 C 604.43535,386.10952 610.05682,383.97532 615.71387,381.96112 C 617.71322,381.37102 619.67451,380.61144 621.72807,380.2255 C 622.69774,379.84338 623.74366,379.76506 624.72728,379.4468 L 617.61967,384.90293 C 616.60814,385.12565 615.6073,385.3834 614.60251,385.63347 C 612.65949,386.09478 610.7562,386.72131 608.84988,387.31095 C 603.27955,389.23445 597.71468,391.17814 592.1003,392.96996 C 586.7935,394.93233 581.47353,397.06769 575.87599,398.04001 L 583.11834,392.77813 z"
         id="path2445"
         style="fill:#333333" />
    </g>
    <g
       id="g2459"
       transform="translate(-110.29563,279.70971)"
       style="fill:#333333">
      <g
         id="g2491"
         transform="matrix(0.9924594,0.1225737,-0.1225737,0.9924594,19.504545,-26.364217)"
         style="fill:#333333">
        <g
           id="g2472"
           transform="translate(-422.89402,-292.14721)"
           style="fill:#333333">
          <path
             transform="translate(6.6603542,32.090797)"
             d="M 602.45933,336.97958 A 11.504248,11.806992 0 1 1 579.45083,336.97958 A 11.504248,11.806992 0 1 1 602.45933,336.97958 z"
             sodipodi:ry="11.806992"
             sodipodi:rx="11.504248"
             sodipodi:cy="336.97958"
             sodipodi:cx="590.95508"
             id="path2474"
             style="fill:#333333"
             sodipodi:type="arc" />
          <path
             d="M 602.18972,376.09137 C 602.38434,382.73184 603.1011,389.35333 603.61743,395.97725 C 604.04457,401.86499 604.29693,407.76668 604.50088,413.66641 C 604.56963,414.99392 604.47665,416.38957 604.93451,417.65982 L 597.07461,421.98614 C 596.6397,420.58149 596.7631,419.07885 596.76277,417.62472 C 596.77701,411.67615 596.67713,405.7281 596.26627,399.79136 C 595.80783,393.21635 595.06737,386.6742 594.25208,380.1358 L 602.18972,376.09137 z"
             id="path2476"
             style="fill:#333333" />
          <path
             d="M 602.70228,400.6521 C 601.73887,402.51707 600.99946,404.48287 600.18489,406.41413 C 599.44741,408.32349 598.72895,410.24602 598.07989,412.18817 C 597.56035,413.59096 597.02934,415.01436 596.30589,416.32742 C 595.71084,417.32794 595.04553,418.2845 594.43221,419.27281 C 594.09743,419.94958 593.60526,420.52706 593.03816,421.01971 L 584.70996,424.47216 C 585.18549,423.92819 585.8465,423.56595 586.24378,422.94739 C 586.74737,421.87427 587.53957,420.98004 588.10935,419.93964 C 588.97049,418.74292 589.42878,417.31306 590.02693,415.97476 C 590.66442,413.99668 591.44393,412.06358 592.14703,410.10991 C 592.9671,408.20353 593.70367,406.26537 594.51594,404.35586 L 602.70228,400.6521 z"
             id="path2478"
             style="fill:#333333" />
          <path
             d="M 606.48798,399.89941 C 608.1962,399.53664 609.74507,399.82536 611.30879,400.54606 C 612.72785,401.27853 614.09287,402.10398 615.36956,403.06433 C 616.69948,403.8544 617.81338,404.90448 618.80019,406.08459 C 619.98338,407.41057 620.74987,409.02086 621.73006,410.48838 C 622.12348,411.14003 622.54718,411.77104 622.98241,412.39509 L 615.28677,416.92507 C 614.84938,416.29498 614.42103,415.65945 614.03285,414.99726 C 613.07989,413.55674 612.35413,411.96512 611.18093,410.67947 C 610.19153,409.58193 609.06678,408.64313 607.81775,407.85033 C 606.57789,406.95863 605.29232,406.12248 603.89473,405.49651 C 602.37241,404.93261 600.87803,404.92059 599.29976,405.30555 L 606.48798,399.89941 z"
             id="path2480"
             style="fill:#333333" />
          <path
             d="M 583.11834,392.77813 C 588.4647,391.66826 593.57507,389.72366 598.67745,387.82479 C 604.43535,386.10952 610.05682,383.97532 615.71387,381.96112 C 617.71322,381.37102 619.67451,380.61144 621.72807,380.2255 C 622.69774,379.84338 623.74366,379.76506 624.72728,379.4468 L 617.61967,384.90293 C 616.60814,385.12565 615.6073,385.3834 614.60251,385.63347 C 612.65949,386.09478 610.7562,386.72131 608.84988,387.31095 C 603.27955,389.23445 597.71468,391.17814 592.1003,392.96996 C 586.7935,394.93233 581.47353,397.06769 575.87599,398.04001 L 583.11834,392.77813 z"
             id="path2482"
             style="fill:#333333" />
        </g>
        <g
           id="g2484"
           transform="translate(-329.64906,-198.90225)"
           style="fill:#333333">
          <path
             transform="translate(6.6603542,32.090797)"
             d="M 602.45933,336.97958 A 11.504248,11.806992 0 1 1 579.45083,336.97958 A 11.504248,11.806992 0 1 1 602.45933,336.97958 z"
             sodipodi:ry="11.806992"
             sodipodi:rx="11.504248"
             sodipodi:cy="336.97958"
             sodipodi:cx="590.95508"
             id="path2486"
             style="fill:#333333"
             sodipodi:type="arc" />
          <path
             d="M 602.18972,376.09137 C 602.38434,382.73184 603.1011,389.35333 603.61743,395.97725 C 604.04457,401.86499 604.29693,407.76668 604.50088,413.66641 C 604.56963,414.99392 604.47665,416.38957 604.93451,417.65982 L 597.07461,421.98614 C 596.6397,420.58149 596.7631,419.07885 596.76277,417.62472 C 596.77701,411.67615 596.67713,405.7281 596.26627,399.79136 C 595.80783,393.21635 595.06737,386.6742 594.25208,380.1358 L 602.18972,376.09137 z"
             id="path2488"
             style="fill:#333333" />
          <path
             d="M 602.70228,400.6521 C 601.73887,402.51707 600.99946,404.48287 600.18489,406.41413 C 599.44741,408.32349 598.72895,410.24602 598.07989,412.18817 C 597.56035,413.59096 597.02934,415.01436 596.30589,416.32742 C 595.71084,417.32794 595.04553,418.2845 594.43221,419.27281 C 594.09743,419.94958 593.60526,420.52706 593.03816,421.01971 L 584.70996,424.47216 C 585.18549,423.92819 585.8465,423.56595 586.24378,422.94739 C 586.74737,421.87427 587.53957,420.98004 588.10935,419.93964 C 588.97049,418.74292 589.42878,417.31306 590.02693,415.97476 C 590.66442,413.99668 591.44393,412.06358 592.14703,410.10991 C 592.9671,408.20353 593.70367,406.26537 594.51594,404.35586 L 602.70228,400.6521 z"
             id="path2490"
             style="fill:#333333" />
          <path
             d="M 606.48798,399.89941 C 608.1962,399.53664 609.74507,399.82536 611.30879,400.54606 C 612.72785,401.27853 614.09287,402.10398 615.36956,403.06433 C 616.69948,403.8544 617.81338,404.90448 618.80019,406.08459 C 619.98338,407.41057 620.74987,409.02086 621.73006,410.48838 C 622.12348,411.14003 622.54718,411.77104 622.98241,412.39509 L 615.28677,416.92507 C 614.84938,416.29498 614.42103,415.65945 614.03285,414.99726 C 613.07989,413.55674 612.35413,411.96512 611.18093,410.67947 C 610.19153,409.58193 609.06678,408.64313 607.81775,407.85033 C 606.57789,406.95863 605.29232,406.12248 603.89473,405.49651 C 602.37241,404.93261 600.87803,404.92059 599.29976,405.30555 L 606.48798,399.89941 z"
             id="path2492"
             style="fill:#333333" />
          <path
             d="M 583.11834,392.77813 C 588.4647,391.66826 593.57507,389.72366 598.67745,387.82479 C 604.43535,386.10952 610.05682,383.97532 615.71387,381.96112 C 617.71322,381.37102 619.67451,380.61144 621.72807,380.2255 C 622.69774,379.84338 623.74366,379.76506 624.72728,379.4468 L 617.61967,384.90293 C 616.60814,385.12565 615.6073,385.3834 614.60251,385.63347 C 612.65949,386.09478 610.7562,386.72131 608.84988,387.31095 C 603.27955,389.23445 597.71468,391.17814 592.1003,392.96996 C 586.7935,394.93233 581.47353,397.06769 575.87599,398.04001 L 583.11834,392.77813 z"
             id="path2494"
             style="fill:#333333" />
        </g>
        <g
           id="g2496"
           transform="translate(-356.29048,-224.93818)"
           style="fill:#333333">
          <path
             transform="translate(6.6603542,32.090797)"
             d="M 602.45933,336.97958 A 11.504248,11.806992 0 1 1 579.45083,336.97958 A 11.504248,11.806992 0 1 1 602.45933,336.97958 z"
             sodipodi:ry="11.806992"
             sodipodi:rx="11.504248"
             sodipodi:cy="336.97958"
             sodipodi:cx="590.95508"
             id="path2498"
             style="fill:#333333"
             sodipodi:type="arc" />
          <path
             d="M 602.18972,376.09137 C 602.38434,382.73184 603.1011,389.35333 603.61743,395.97725 C 604.04457,401.86499 604.29693,407.76668 604.50088,413.66641 C 604.56963,414.99392 604.47665,416.38957 604.93451,417.65982 L 597.07461,421.98614 C 596.6397,420.58149 596.7631,419.07885 596.76277,417.62472 C 596.77701,411.67615 596.67713,405.7281 596.26627,399.79136 C 595.80783,393.21635 595.06737,386.6742 594.25208,380.1358 L 602.18972,376.09137 z"
             id="path2500"
             style="fill:#333333" />
          <path
             d="M 602.70228,400.6521 C 601.73887,402.51707 600.99946,404.48287 600.18489,406.41413 C 599.44741,408.32349 598.72895,410.24602 598.07989,412.18817 C 597.56035,413.59096 597.02934,415.01436 596.30589,416.32742 C 595.71084,417.32794 595.04553,418.2845 594.43221,419.27281 C 594.09743,419.94958 593.60526,420.52706 593.03816,421.01971 L 584.70996,424.47216 C 585.18549,423.92819 585.8465,423.56595 586.24378,422.94739 C 586.74737,421.87427 587.53957,420.98004 588.10935,419.93964 C 588.97049,418.74292 589.42878,417.31306 590.02693,415.97476 C 590.66442,413.99668 591.44393,412.06358 592.14703,410.10991 C 592.9671,408.20353 593.70367,406.26537 594.51594,404.35586 L 602.70228,400.6521 z"
             id="path2502"
             style="fill:#333333" />
          <path
             d="M 606.48798,399.89941 C 608.1962,399.53664 609.74507,399.82536 611.30879,400.54606 C 612.72785,401.27853 614.09287,402.10398 615.36956,403.06433 C 616.69948,403.8544 617.81338,404.90448 618.80019,406.08459 C 619.98338,407.41057 620.74987,409.02086 621.73006,410.48838 C 622.12348,411.14003 622.54718,411.77104 622.98241,412.39509 L 615.28677,416.92507 C 614.84938,416.29498 614.42103,415.65945 614.03285,414.99726 C 613.07989,413.55674 612.35413,411.96512 611.18093,410.67947 C 610.19153,409.58193 609.06678,408.64313 607.81775,407.85033 C 606.57789,406.95863 605.29232,406.12248 603.89473,405.49651 C 602.37241,404.93261 600.87803,404.92059 599.29976,405.30555 L 606.48798,399.89941 z"
             id="path2504"
             style="fill:#333333" />
          <path
             d="M 583.11834,392.77813 C 588.4647,391.66826 593.57507,389.72366 598.67745,387.82479 C 604.43535,386.10952 610.05682,383.97532 615.71387,381.96112 C 617.71322,381.37102 619.67451,380.61144 621.72807,380.2255 C 622.69774,379.84338 623.74366,379.76506 624.72728,379.4468 L 617.61967,384.90293 C 616.60814,385.12565 615.6073,385.3834 614.60251,385.63347 C 612.65949,386.09478 610.7562,386.72131 608.84988,387.31095 C 603.27955,389.23445 597.71468,391.17814 592.1003,392.96996 C 586.7935,394.93233 581.47353,397.06769 575.87599,398.04001 L 583.11834,392.77813 z"
             id="path2506"
             style="fill:#333333" />
        </g>
        <g
           id="g2508"
           transform="translate(-378.08799,-244.91925)"
           style="fill:#333333">
          <path
             transform="translate(6.6603542,32.090797)"
             d="M 602.45933,336.97958 A 11.504248,11.806992 0 1 1 579.45083,336.97958 A 11.504248,11.806992 0 1 1 602.45933,336.97958 z"
             sodipodi:ry="11.806992"
             sodipodi:rx="11.504248"
             sodipodi:cy="336.97958"
             sodipodi:cx="590.95508"
             id="path2510"
             style="fill:#333333"
             sodipodi:type="arc" />
          <path
             d="M 602.18972,376.09137 C 602.38434,382.73184 603.1011,389.35333 603.61743,395.97725 C 604.04457,401.86499 604.29693,407.76668 604.50088,413.66641 C 604.56963,414.99392 604.47665,416.38957 604.93451,417.65982 L 597.07461,421.98614 C 596.6397,420.58149 596.7631,419.07885 596.76277,417.62472 C 596.77701,411.67615 596.67713,405.7281 596.26627,399.79136 C 595.80783,393.21635 595.06737,386.6742 594.25208,380.1358 L 602.18972,376.09137 z"
             id="path2512"
             style="fill:#333333" />
          <path
             d="M 602.70228,400.6521 C 601.73887,402.51707 600.99946,404.48287 600.18489,406.41413 C 599.44741,408.32349 598.72895,410.24602 598.07989,412.18817 C 597.56035,413.59096 597.02934,415.01436 596.30589,416.32742 C 595.71084,417.32794 595.04553,418.2845 594.43221,419.27281 C 594.09743,419.94958 593.60526,420.52706 593.03816,421.01971 L 584.70996,424.47216 C 585.18549,423.92819 585.8465,423.56595 586.24378,422.94739 C 586.74737,421.87427 587.53957,420.98004 588.10935,419.93964 C 588.97049,418.74292 589.42878,417.31306 590.02693,415.97476 C 590.66442,413.99668 591.44393,412.06358 592.14703,410.10991 C 592.9671,408.20353 593.70367,406.26537 594.51594,404.35586 L 602.70228,400.6521 z"
             id="path2514"
             style="fill:#333333" />
          <path
             d="M 606.48798,399.89941 C 608.1962,399.53664 609.74507,399.82536 611.30879,400.54606 C 612.72785,401.27853 614.09287,402.10398 615.36956,403.06433 C 616.69948,403.8544 617.81338,404.90448 618.80019,406.08459 C 619.98338,407.41057 620.74987,409.02086 621.73006,410.48838 C 622.12348,411.14003 622.54718,411.77104 622.98241,412.39509 L 615.28677,416.92507 C 614.84938,416.29498 614.42103,415.65945 614.03285,414.99726 C 613.07989,413.55674 612.35413,411.96512 611.18093,410.67947 C 610.19153,409.58193 609.06678,408.64313 607.81775,407.85033 C 606.57789,406.95863 605.29232,406.12248 603.89473,405.49651 C 602.37241,404.93261 600.87803,404.92059 599.29976,405.30555 L 606.48798,399.89941 z"
             id="path2516"
             style="fill:#333333" />
          <path
             d="M 583.11834,392.77813 C 588.4647,391.66826 593.57507,389.72366 598.67745,387.82479 C 604.43535,386.10952 610.05682,383.97532 615.71387,381.96112 C 617.71322,381.37102 619.67451,380.61144 621.72807,380.2255 C 622.69774,379.84338 623.74366,379.76506 624.72728,379.4468 L 617.61967,384.90293 C 616.60814,385.12565 615.6073,385.3834 614.60251,385.63347 C 612.65949,386.09478 610.7562,386.72131 608.84988,387.31095 C 603.27955,389.23445 597.71468,391.17814 592.1003,392.96996 C 586.7935,394.93233 581.47353,397.06769 575.87599,398.04001 L 583.11834,392.77813 z"
             id="path2518"
             style="fill:#333333" />
        </g>
        <g
           id="g2520"
           transform="translate(-399.28003,-264.9003)"
           style="fill:#333333">
          <path
             transform="translate(6.6603542,32.090797)"
             d="M 602.45933,336.97958 A 11.504248,11.806992 0 1 1 579.45083,336.97958 A 11.504248,11.806992 0 1 1 602.45933,336.97958 z"
             sodipodi:ry="11.806992"
             sodipodi:rx="11.504248"
             sodipodi:cy="336.97958"
             sodipodi:cx="590.95508"
             id="path2522"
             style="fill:#333333"
             sodipodi:type="arc" />
          <path
             d="M 602.18972,376.09137 C 602.38434,382.73184 603.1011,389.35333 603.61743,395.97725 C 604.04457,401.86499 604.29693,407.76668 604.50088,413.66641 C 604.56963,414.99392 604.47665,416.38957 604.93451,417.65982 L 597.07461,421.98614 C 596.6397,420.58149 596.7631,419.07885 596.76277,417.62472 C 596.77701,411.67615 596.67713,405.7281 596.26627,399.79136 C 595.80783,393.21635 595.06737,386.6742 594.25208,380.1358 L 602.18972,376.09137 z"
             id="path2524"
             style="fill:#333333" />
          <path
             d="M 602.70228,400.6521 C 601.73887,402.51707 600.99946,404.48287 600.18489,406.41413 C 599.44741,408.32349 598.72895,410.24602 598.07989,412.18817 C 597.56035,413.59096 597.02934,415.01436 596.30589,416.32742 C 595.71084,417.32794 595.04553,418.2845 594.43221,419.27281 C 594.09743,419.94958 593.60526,420.52706 593.03816,421.01971 L 584.70996,424.47216 C 585.18549,423.92819 585.8465,423.56595 586.24378,422.94739 C 586.74737,421.87427 587.53957,420.98004 588.10935,419.93964 C 588.97049,418.74292 589.42878,417.31306 590.02693,415.97476 C 590.66442,413.99668 591.44393,412.06358 592.14703,410.10991 C 592.9671,408.20353 593.70367,406.26537 594.51594,404.35586 L 602.70228,400.6521 z"
             id="path2526"
             style="fill:#333333" />
          <path
             d="M 606.48798,399.89941 C 608.1962,399.53664 609.74507,399.82536 611.30879,400.54606 C 612.72785,401.27853 614.09287,402.10398 615.36956,403.06433 C 616.69948,403.8544 617.81338,404.90448 618.80019,406.08459 C 619.98338,407.41057 620.74987,409.02086 621.73006,410.48838 C 622.12348,411.14003 622.54718,411.77104 622.98241,412.39509 L 615.28677,416.92507 C 614.84938,416.29498 614.42103,415.65945 614.03285,414.99726 C 613.07989,413.55674 612.35413,411.96512 611.18093,410.67947 C 610.19153,409.58193 609.06678,408.64313 607.81775,407.85033 C 606.57789,406.95863 605.29232,406.12248 603.89473,405.49651 C 602.37241,404.93261 600.87803,404.92059 599.29976,405.30555 L 606.48798,399.89941 z"
             id="path2528"
             style="fill:#333333" />
          <path
             d="M 583.11834,392.77813 C 588.4647,391.66826 593.57507,389.72366 598.67745,387.82479 C 604.43535,386.10952 610.05682,383.97532 615.71387,381.96112 C 617.71322,381.37102 619.67451,380.61144 621.72807,380.2255 C 622.69774,379.84338 623.74366,379.76506 624.72728,379.4468 L 617.61967,384.90293 C 616.60814,385.12565 615.6073,385.3834 614.60251,385.63347 C 612.65949,386.09478 610.7562,386.72131 608.84988,387.31095 C 603.27955,389.23445 597.71468,391.17814 592.1003,392.96996 C 586.7935,394.93233 581.47353,397.06769 575.87599,398.04001 L 583.11834,392.77813 z"
             id="path2530"
             style="fill:#333333" />
        </g>
      </g>
    </g>
    <text
       xml:space="preserve"
       style="font-size:16.23811913px;font-style:normal;font-weight:normal;fill:#000000;fill-opacity:1;stroke:none;stroke-width:1px;stroke-linecap:butt;stroke-linejoin:miter;stroke-opacity:1;font-family:Bitstream Vera Sans"
       x="163.80489"
       y="243.56996"
       id="text2447"><tspan
         sodipodi:role="line"
         id="tspan2449"
         x="163.80489"
         y="243.56996">Destinatário</tspan></text>
    <text
       xml:space="preserve"
       style="font-size:16.1512661px;font-style:normal;font-weight:normal;fill:#000000;fill-opacity:1;stroke:none;stroke-width:1px;stroke-linecap:butt;stroke-linejoin:miter;stroke-opacity:1;font-family:Bitstream Vera Sans"
       x="190.89891"
       y="479.16263"
       id="text2451"><tspan
         sodipodi:role="line"
         id="tspan2453"
         x="190.89891"
         y="479.16263">Usuários reais</tspan></text>
    <text
       xml:space="preserve"
       style="font-size:16.34230995px;font-style:normal;font-weight:normal;fill:#000000;fill-opacity:1;stroke:none;stroke-width:1px;stroke-linecap:butt;stroke-linejoin:miter;stroke-opacity:1;font-family:Bitstream Vera Sans"
       x="560.85895"
       y="285.73807"
       id="text2455"><tspan
         sodipodi:role="line"
         id="tspan2457"
         x="560.85895"
         y="285.73807">Recomendação</tspan></text>
    <g
       id="g2537"
       transform="matrix(0.9916109,-0.1292584,0.1292584,0.9916109,-15.639003,55.951233)"
       style="fill:#333333">
      <path
         d="M 618.84203,221.35408 C 616.73311,209.16393 613.49948,197.28961 609.9857,185.52695 C 604.78159,169.89788 598.08582,154.57912 587.89968,141.54075 C 579.91916,131.3256 577.93358,130.411 568.02216,121.71443 C 549.11542,105.87597 525.59076,96.141435 500.79852,89.574078 C 491.54708,87.123401 482.17782,84.973488 472.86748,82.673192 C 455.18914,79.682268 457.57512,79.827336 439.40496,77.81306 C 426.90641,76.42752 419.61981,75.669446 406.9296,75.573727 C 392.98588,75.46855 389.03134,76.119225 375.01187,77.294161 C 346.00534,80.320103 317.19798,86.778712 288.51273,93.263316 C 271.51334,97.498955 254.26394,100.57082 237.46295,105.83906 C 236.72992,106.10687 235.9969,106.37468 235.26388,106.64249 L 249.92244,112.09561 C 250.55532,111.8225 251.1882,111.54939 251.82109,111.27632 C 267.8824,105.39936 284.64142,102.25754 301.09308,98.197625 C 329.57801,91.681269 358.16498,85.167416 386.99144,82.216745 C 400.87879,81.121563 404.99262,80.487043 418.78688,80.63235 C 441.13972,80.867762 463.07189,84.019112 484.57443,87.942064 C 492.49612,88.246303 488.38986,87.857695 502.38901,92.399312 C 521.65167,98.648535 539.72495,107.13391 554.76649,119.66592 C 558.3497,122.77516 562.16048,125.66941 565.51611,128.99365 C 580.48622,143.8238 590.00718,162.7956 596.17408,182.67904 C 597.11479,186.04811 598.15148,189.38641 598.99626,192.78625 C 601.04033,201.0128 602.13175,209.46161 603.14019,217.93598 L 618.84203,221.35408 z"
         id="path2534"
         style="fill:#333333" />
      <path
         d="M 241.25125,119.86905 C 243.06961,117.57975 244.50818,114.96492 245.64471,112.20385 C 246.57915,110.36567 246.7743,108.24604 246.76432,106.10576 C 246.67304,104.39923 246.3712,102.79572 245.67831,101.17242 C 244.9205,99.384738 244.43188,97.617378 244.44372,95.740392 C 244.55973,94.338475 244.51429,95.04929 244.57834,93.607647 L 231.08515,93.855474 C 231.02064,95.293766 231.06095,94.55706 230.96187,96.065187 C 231.00439,98.14117 231.41637,100.13854 232.23756,102.12869 C 232.89735,103.53656 233.14859,104.9221 233.23606,106.42327 C 233.23632,108.38726 233.00311,110.26786 232.16425,111.96314 C 231.03369,114.60794 229.65649,117.16125 227.61472,119.10867 L 241.25125,119.86905 z"
         id="path2536"
         style="fill:#333333" />
      <path
         d="M 240.10698,108.63419 C 244.83977,108.1194 249.59556,108.23473 254.3215,108.73329 C 257.40392,109.13292 260.24493,110.21287 262.85883,111.85915 C 264.94662,113.22055 266.57132,115.08693 268.19446,116.94707 C 269.31512,118.22763 270.17459,119.68935 270.95148,121.1942 L 262.40199,131.11812 C 261.70764,129.68372 260.94713,128.27907 259.91355,127.05427 C 258.39783,125.27301 256.87438,123.49373 254.89966,122.19811 C 252.44132,120.69209 249.80108,119.66776 246.91871,119.30338 C 242.22327,118.80856 237.49561,118.74061 232.81716,119.4841 L 240.10698,108.63419 z"
         id="path2535"
         style="fill:#333333;fill-opacity:1;fill-rule:nonzero;stroke:none;stroke-width:1px;stroke-linecap:butt;stroke-linejoin:miter;stroke-opacity:1" />
    </g>
  </g>
</svg>
